<svg width="48" height="24" viewBox="0 0 48 24" fill="none" xmlns="http://www.w3.org/2000/svg">
<path d="M1.01972 23.4938C0.738401 23.4938 0.510755 23.2662 0.510755 22.9848V14.872C0.510755 14.7368 0.564427 14.6073 0.659742 14.512L1.24459 13.9271C1.3399 13.8318 1.46946 13.7781 1.60457 13.7781H1.98397V6.91454C1.98397 6.77943 2.03765 6.64987 2.13297 6.55456L2.71781 5.96879C2.81312 5.87347 2.94268 5.8198 3.07779 5.8198H3.4572V1.0235C3.4572 0.742185 3.68484 0.514539 3.96616 0.514539H11.1C12.191 0.514539 13.0942 0.556184 13.7827 0.638544C16.9679 1.03831 19.5275 2.87336 20.9933 5.80407L21.0859 5.98915C21.1645 6.14646 21.1562 6.33431 21.0637 6.48423L20.5371 7.33651C20.4686 7.44663 20.3622 7.52529 20.2401 7.55953C20.675 8.9143 20.8943 10.4005 20.8943 11.9894C20.8943 12.8269 20.8314 13.6477 20.7065 14.4268L20.6852 14.561C20.6657 14.6795 20.6056 14.7877 20.5149 14.8655L19.881 15.4124C19.7885 15.492 19.6709 15.5355 19.5488 15.5355H19.0176C18.5262 17.5778 17.5981 19.3508 16.3257 20.6742C14.8626 22.1946 13.0165 23.1014 10.839 23.3689C10.1579 23.4512 9.25384 23.4929 8.15355 23.4929L1.01972 23.4938ZM8.15355 21.7356C9.18351 21.7356 10.0164 21.6976 10.6262 21.6245C14.0788 21.2007 16.5385 18.7281 17.3732 14.8414L17.4 14.7165C17.4241 14.6054 17.4843 14.5055 17.5722 14.4324L18.2153 13.8966C18.3069 13.8207 18.4217 13.7791 18.541 13.7791H19.025C19.0991 13.2035 19.137 12.6029 19.137 11.9912C19.137 10.2894 18.8566 8.73478 18.3023 7.37075L18.2292 7.19123C18.1663 7.03669 18.1838 6.86179 18.2745 6.72205L18.7104 6.053C18.7789 5.94843 18.8816 5.87347 18.9991 5.84108C17.7646 3.86908 15.9 2.67902 13.5689 2.3866C12.9526 2.31349 12.1207 2.27556 11.1 2.27556H5.21544V6.48608C5.21544 6.62119 5.16176 6.75074 5.06645 6.84605L4.48068 7.4309C4.38536 7.52622 4.25581 7.57989 4.1207 7.57989H3.74129V14.4435C3.74129 14.5786 3.68762 14.7082 3.5923 14.8035L3.00653 15.3883C2.91121 15.4836 2.78166 15.5373 2.64656 15.5373H2.26714V21.7365H8.1517L8.15355 21.7356ZM4.62966 20.1485C4.34835 20.1485 4.1207 19.9209 4.1207 19.6396V14.872C4.1207 14.7368 4.17437 14.6073 4.26969 14.512L4.85453 13.9262C4.94985 13.8309 5.07941 13.7772 5.21451 13.7772H5.59392V6.91361C5.59392 6.7785 5.64759 6.64895 5.74291 6.55363L6.32775 5.96786C6.42307 5.87254 6.55262 5.81887 6.68773 5.81887H7.06714V4.36786C7.06714 4.08654 7.29478 3.8589 7.5761 3.8589H11.1C13.171 3.8589 15.1578 4.00973 16.7069 5.8346L16.8652 6.02061C16.9975 6.17607 17.0234 6.39539 16.9327 6.57769L16.5737 7.2958C16.5144 7.41517 16.4117 7.50401 16.2905 7.5475C16.8457 8.79307 17.1372 10.307 17.1372 11.9736C17.1372 12.8435 17.0567 13.6847 16.8994 14.474L16.8726 14.6064C16.8494 14.7239 16.7847 14.8294 16.6912 14.9044L16.0425 15.4235C15.9518 15.4957 15.8398 15.5355 15.7242 15.5355H15.1625C14.3962 17.985 12.8036 19.5572 10.6623 19.9699C9.7628 20.1347 8.51445 20.1476 8.15262 20.1476H4.62874L4.62966 20.1485ZM8.15355 18.3903C8.47744 18.3903 9.5916 18.3792 10.3375 18.2432C11.8699 17.948 13.0137 16.7153 13.5541 14.7757L13.5874 14.6573C13.617 14.5518 13.68 14.4583 13.766 14.3917L14.4194 13.8855C14.5082 13.8161 14.6183 13.7791 14.7312 13.7791H15.2383C15.3318 13.2053 15.3781 12.6001 15.3781 11.9764C15.3781 10.2524 15.0107 8.70424 14.3435 7.61783L14.2315 7.43461C14.1362 7.27914 14.1306 7.08388 14.2186 6.92379L14.5739 6.27602C13.6291 5.67544 12.4705 5.61991 11.1 5.61991H8.82538V6.48608C8.82538 6.62119 8.77171 6.75074 8.67639 6.84605L8.09155 7.4309C7.99623 7.52622 7.86668 7.57989 7.73157 7.57989H7.35216V14.4435C7.35216 14.5786 7.29849 14.7082 7.20317 14.8035L6.6174 15.3883C6.52209 15.4836 6.39253 15.5373 6.25742 15.5373H5.87802V18.3912H8.15262L8.15355 18.3903Z" fill="white"/>
<path d="M11.101 1.02441C12.1717 1.02441 13.0545 1.06512 13.7235 1.14471C16.732 1.52227 19.1519 3.2583 20.539 6.03261L20.6316 6.21677L20.105 7.06905H19.5387L19.5322 7.07923C20.0995 8.54782 20.3863 10.1987 20.3863 11.9884C20.3863 12.7991 20.3253 13.593 20.205 14.3454L20.1837 14.4786L19.5498 15.0255H18.8095L18.5679 15.2273C18.1099 17.2622 17.2104 19.0214 15.9602 20.3206C14.5804 21.755 12.837 22.61 10.778 22.8627C10.1173 22.9432 9.23446 22.983 8.15453 22.983H1.02071V14.8701L1.60555 14.2852H2.34216L2.49393 14.1335V6.91266L3.07877 6.32689H3.81539L3.96714 6.17512V1.02163H11.101M1.76009 22.2417H8.15361C9.20485 22.2417 10.0571 22.2029 10.6883 22.127C14.3695 21.6754 16.9883 19.0575 17.8711 14.946L17.898 14.821L18.5411 14.2852H19.274L19.4943 14.0955C19.5951 13.4209 19.646 12.7121 19.646 11.9884C19.646 10.22 19.3527 8.60149 18.7743 7.17639L18.7012 6.99687L19.1371 6.32781H19.6914L19.783 6.17975C18.4819 3.70619 16.36 2.22001 13.6338 1.87761C12.9952 1.80173 12.142 1.76287 11.101 1.76287H4.70746V6.48235L4.12169 7.0672H3.38508L3.23331 7.21897V14.4398L2.64754 15.0246H1.91093L1.75917 15.1764L1.76009 22.2417ZM11.1 4.36691C13.1211 4.36691 14.909 4.50202 16.3183 6.16309L16.4766 6.3491L16.1175 7.0672H15.5623L15.5188 7.14678C16.2443 8.42289 16.6274 10.0858 16.6274 11.9718C16.6274 12.8083 16.5506 13.6153 16.3988 14.3722L16.372 14.5046L15.7233 15.0237H14.983L14.722 15.2254C14.0326 17.5778 12.5594 19.0825 10.5643 19.4674C9.71104 19.6238 8.50156 19.6358 8.15083 19.6358H4.62695V14.8682L5.21179 14.2825H5.94841L6.10017 14.1307V6.90988L6.68501 6.32411H7.42163L7.57339 6.17235V4.36414H11.0973M5.36726 18.8937H8.15083C8.48582 18.8937 9.63886 18.8826 10.4273 18.7382C12.1624 18.4032 13.4478 17.0429 14.0428 14.9062L14.0761 14.7877L14.7294 14.2815H15.4633L15.6974 14.0937C15.8223 13.4228 15.8862 12.7084 15.8862 11.969C15.8862 10.1524 15.4919 8.50988 14.7766 7.34389L14.6647 7.16067L15.1236 6.32319H15.4586C14.2973 5.19884 12.8472 5.10353 11.0991 5.10353H8.31556V6.47865L7.73071 7.0635H6.9941L6.84233 7.21527V14.4361L6.25656 15.0209H5.51995L5.36819 15.1727V18.8928M11.0982 0H3.96437C3.40173 0 2.94644 0.455292 2.94644 1.01793V5.31359C2.72435 5.34227 2.51614 5.44314 2.35604 5.60323L1.7712 6.18901C1.58057 6.37964 1.47322 6.63875 1.47322 6.90896V13.271C1.25113 13.2997 1.04292 13.4006 0.882825 13.5607L0.297978 14.1455C0.107348 14.3361 0 14.5952 0 14.8655V22.9784C0 23.541 0.455292 23.9963 1.01793 23.9963H8.15176C9.27333 23.9963 10.1969 23.9528 10.8983 23.8686C13.197 23.5863 15.1459 22.6286 16.6912 21.0221C17.9442 19.7191 18.878 18.0062 19.4119 16.0398H19.5479C19.7922 16.0398 20.0282 15.9519 20.2124 15.7927L20.8463 15.2458C21.0286 15.0894 21.1489 14.8729 21.1868 14.636L21.2081 14.5027C21.3367 13.6958 21.4024 12.849 21.4024 11.9838C21.4024 10.4856 21.2127 9.07345 20.8361 7.76957C20.886 7.71775 20.9305 7.66037 20.9684 7.59837L21.495 6.74609C21.68 6.44627 21.6967 6.07148 21.5394 5.75685L21.4468 5.5727C19.9024 2.48375 17.2039 0.551534 13.8475 0.129557C13.8457 0.129557 13.8438 0.129557 13.8411 0.129557C13.1322 0.044421 12.2087 0.00185259 11.0973 0.00185259L11.0982 0ZM5.72261 2.77617H11.0982C12.0976 2.77617 12.9083 2.81226 13.507 2.88352C15.5234 3.13707 17.1651 4.11243 18.3116 5.72353C18.3014 5.73741 18.2913 5.75222 18.282 5.76703L17.8461 6.43608C17.6638 6.71555 17.6305 7.06627 17.7554 7.37443L17.8286 7.55396C18.3579 8.8569 18.6253 10.3468 18.6253 11.9829C18.6253 12.4169 18.6059 12.8453 18.567 13.2618H18.5383C18.3005 13.2618 18.0692 13.345 17.8869 13.4977L17.5241 13.8003C17.6037 13.209 17.6444 12.5955 17.6444 11.9681C17.6444 10.3903 17.3918 8.93834 16.9078 7.70294C16.9541 7.64649 16.9939 7.58449 17.0272 7.51694L17.3862 6.79884C17.5685 6.43424 17.5158 5.9956 17.2511 5.68467L17.0929 5.49866C15.4031 3.50908 13.2932 3.34343 11.0982 3.34343H7.57432C7.01168 3.34343 6.55639 3.79872 6.55639 4.36136V5.31174C6.3343 5.34043 6.12608 5.44129 5.96599 5.60139L5.72261 5.84476V2.77432V2.77617ZM9.33256 6.12145H11.0982C12.3336 6.12145 13.1961 6.18531 13.879 6.47495L13.7716 6.67114C13.5958 6.99132 13.6051 7.38183 13.7966 7.69369L13.9086 7.87692C14.5268 8.88466 14.8673 10.3384 14.8673 11.969C14.8673 12.4122 14.8423 12.8453 14.7933 13.2627H14.7285C14.5027 13.2627 14.2834 13.3376 14.1048 13.4755L13.4515 13.9817C13.2784 14.1159 13.1535 14.3019 13.0943 14.5129L13.061 14.6313C12.7176 15.8649 11.9486 17.4038 10.2376 17.736C9.67865 17.8378 8.79305 17.8739 8.14991 17.8739H6.38426V16.0296C6.60636 16.0009 6.81457 15.9 6.97466 15.7399L7.56043 15.1551C7.75106 14.9645 7.85841 14.7054 7.85841 14.4352V8.07217C8.08051 8.04348 8.28872 7.94262 8.44881 7.78252L9.03365 7.19768C9.22428 7.00705 9.33163 6.74794 9.33163 6.47773V6.12053L9.33256 6.12145ZM4.24847 8.0731C4.47056 8.04441 4.67877 7.94354 4.83887 7.78345L5.08316 7.53915V13.271C4.86107 13.2997 4.65286 13.4006 4.49277 13.5607L4.24939 13.804V8.07217L4.24847 8.0731ZM2.77524 16.0305C2.99734 16.0018 3.20555 15.901 3.36564 15.7409L3.60995 15.4966V19.6331C3.60995 20.1957 4.06524 20.651 4.62787 20.651H8.15176C8.62926 20.651 9.83689 20.6325 10.7484 20.4659C10.7512 20.4659 10.7549 20.465 10.7577 20.4641C11.957 20.2327 13.0008 19.671 13.8605 18.7937C14.5777 18.0618 15.1366 17.1373 15.528 16.0388H15.7233C15.9546 16.0388 16.1786 15.9602 16.359 15.8158L16.657 15.5771C15.715 18.7484 13.5292 20.7482 10.5615 21.1128C9.97292 21.184 9.16136 21.2201 8.15083 21.2201H2.77524V16.0305Z" fill="#E203A8"/>
<path d="M39.4076 23.4938C39.1263 23.4938 38.8987 23.2662 38.8987 22.9849V15.5244C38.8626 15.5327 38.8256 15.5364 38.7876 15.5364H37.6346L33.971 23.2042C33.8868 23.3809 33.7082 23.4938 33.512 23.4938H31.6307C31.4345 23.4938 31.2559 23.3809 31.1717 23.2042L27.4155 15.3504C27.36 15.2347 27.3517 15.1033 27.3878 14.983L26.9843 15.3865C26.889 15.4818 26.7594 15.5355 26.6243 15.5355H26.2449V22.9839C26.2449 23.2653 26.0173 23.4929 25.7359 23.4929H21.6652C21.3838 23.4929 21.1562 23.2653 21.1562 22.9839V14.872C21.1562 14.7369 21.2099 14.6073 21.3052 14.512L21.89 13.9262C21.9853 13.8309 22.1149 13.7772 22.25 13.7772H22.6294V6.91362C22.6294 6.77852 22.6831 6.64896 22.7784 6.55365L23.3632 5.96787C23.4586 5.87256 23.5881 5.81889 23.7232 5.81889H24.1026V1.02259C24.1026 0.741272 24.3303 0.513626 24.6116 0.513626H28.4103C28.6047 0.513626 28.7814 0.623749 28.8675 0.798648L31.4169 5.99286C31.4937 6.15018 31.4854 6.33525 31.3929 6.48424L30.8672 7.33467C30.82 7.41056 30.7553 7.47163 30.6794 7.51327L33.7332 13.7754H34.3495L38.0853 6.10391C38.1704 5.92901 38.3481 5.81796 38.5424 5.81796H39.7001L42.1681 0.797721C42.2532 0.623748 42.4309 0.513626 42.6252 0.513626H46.424C46.7053 0.513626 46.9329 0.741272 46.9329 1.02259V6.48239C46.9329 6.6175 46.8793 6.74705 46.7839 6.84237L46.1982 7.42721C46.1028 7.52253 45.9733 7.5762 45.8382 7.5762H45.4588V14.4398C45.4588 14.5749 45.4051 14.7045 45.3098 14.7998L44.7249 15.3846C44.6296 15.48 44.5001 15.5336 44.365 15.5336H43.9856V22.9821C43.9856 23.2634 43.7579 23.491 43.4766 23.491H39.4058L39.4076 23.4938ZM42.2292 21.7356V14.8729C42.2292 14.7378 42.2828 14.6082 42.3782 14.5129L42.963 13.9271C43.0583 13.8318 43.1879 13.7782 43.323 13.7782H43.7024V6.91455C43.7024 6.77944 43.7561 6.64989 43.8514 6.55457L44.4362 5.96972C44.5315 5.87441 44.6611 5.82074 44.7962 5.82074H45.1756V2.27372H43.4044L40.9364 7.29396C40.8513 7.46793 40.6736 7.57805 40.4793 7.57805H39.3244L35.5886 15.2495C35.5034 15.4244 35.3258 15.5355 35.1314 15.5355H33.9784L33.0326 17.4927C32.9475 17.6676 32.7708 17.7795 32.5755 17.7805C32.3812 17.7805 32.2026 17.6694 32.1174 17.4955L30.9838 15.182C30.9061 15.0228 30.9163 14.835 31.0116 14.685L31.4382 14.0141C31.5159 13.892 31.6409 13.8096 31.7815 13.7856L28.5815 7.2227C28.5038 7.06353 28.5149 6.87568 28.6093 6.72669L29.0359 6.05671C29.1136 5.93549 29.2376 5.85312 29.3773 5.82906L27.633 2.27465H25.8627V6.48517C25.8627 6.62027 25.809 6.74983 25.7137 6.84515L25.128 7.42999C25.0326 7.5253 24.9031 7.57898 24.768 7.57898H24.3886V14.4426C24.3886 14.5777 24.3349 14.7072 24.2396 14.8026L23.6538 15.3874C23.5585 15.4827 23.4289 15.5364 23.2938 15.5364H22.9144V21.7356H24.4867V14.872C24.4867 14.7369 24.5403 14.6073 24.6357 14.512L25.2205 13.9271C25.3158 13.8318 25.4454 13.7782 25.5805 13.7782H25.9599V7.38002C25.9599 7.14219 26.1246 6.93583 26.356 6.88401C26.3939 6.87568 26.4309 6.87105 26.4689 6.87105C26.6613 6.87105 26.8418 6.98118 26.9278 7.1607L30.2528 14.1206C30.3268 14.276 30.3176 14.4574 30.2287 14.6045L29.8104 15.2921C29.7309 15.4226 29.5985 15.5086 29.4505 15.5308L32.4182 21.7356H32.7245L36.3881 14.0678C36.4723 13.8911 36.6509 13.7782 36.8471 13.7782H38.0001L41.1622 7.1607C41.2483 6.98118 41.4287 6.87105 41.6212 6.87105C41.6582 6.87105 41.6961 6.87476 41.7341 6.88401C41.9664 6.93676 42.1301 7.14219 42.1301 7.38002V14.4417C42.1301 14.5768 42.0765 14.7063 41.9812 14.8016L41.3954 15.3865C41.3001 15.4818 41.1705 15.5355 41.0354 15.5355H40.656V21.7347H42.2282L42.2292 21.7356ZM27.7191 14.4361L27.9948 14.0104C28.0402 13.9401 28.1022 13.8827 28.1734 13.8429L27.7191 12.8926V14.4361ZM39.9481 13.78C39.9629 13.7791 39.9777 13.7782 39.9925 13.7782H40.3719V12.8926L39.9481 13.78Z" fill="white"/>
<path d="M46.4258 1.02443V6.48423L45.84 7.06907H45.1034L44.9517 7.22084V14.4417L44.3668 15.0265H43.6302L43.4784 15.1783V22.9839H39.4077V14.871L39.9925 14.2862H40.7291L40.8809 14.1344V10.6457L38.7877 15.0265H37.3144L33.5129 22.9839H31.6316L27.8755 15.1301L28.4214 14.2862H28.9489L27.2101 10.6457V14.4417L26.6253 15.0265H25.8886L25.7369 15.1783V22.9839H21.6661V14.872L22.2509 14.2862H22.9876L23.1393 14.1344V6.91361L23.7242 6.32784H24.4608L24.6125 6.17607V1.02258H28.4113L30.9607 6.21679L30.4351 7.06722H29.8965L33.3621 14.1742L33.2945 14.2843H34.6687L38.5443 6.32691H40.0193L42.628 1.02165H46.4268M32.5755 17.2687L31.4419 14.9552L31.8685 14.2843H32.4256L32.5191 14.1326L29.0396 6.99782L29.4662 6.32784H30.0233L30.1168 6.17607L27.9504 1.76289H25.3538V6.48238L24.768 7.06722H24.0314L23.8796 7.21899V14.4398L23.2938 15.0246H22.5572L22.4055 15.1764V22.2418H24.9956V14.8692L25.5805 14.2843H26.3171L26.4689 14.1326V7.37723L29.7938 14.3371L29.3755 15.0246H28.824L28.7213 15.1829L32.0971 22.2418H33.0447L36.8462 14.2843H38.3194L41.6193 7.37723V14.4389L41.0336 15.0237H40.297L40.1452 15.1755V22.2408H42.7354V14.8692L43.3202 14.2834H44.0568L44.2086 14.1316V6.91083L44.7934 6.32598H45.53L45.6818 6.17422V1.76104H43.0842L40.4756 7.0663H39.0033L35.1277 15.0237H33.6545L32.57 17.2678M32.8328 15.0237H32.2951L32.5653 15.5762L32.8328 15.0237ZM46.4212 0.00280137H42.6225C42.2347 0.00280137 41.8803 0.223041 41.7091 0.571913L39.3808 5.30806H38.5396C38.1501 5.30806 37.7947 5.53015 37.6244 5.87995L34.0376 13.2451L31.2901 7.61135C31.2901 7.61135 31.2948 7.60488 31.2966 7.60117L31.8222 6.75074C32.0064 6.45276 32.024 6.08168 31.8704 5.76705L29.3209 0.572839C29.1497 0.223967 28.7953 0.00372202 28.4066 0.00372202H24.6079C24.0453 0.00372202 23.59 0.459014 23.59 1.02165V5.31731C23.3679 5.346 23.1597 5.44687 22.9996 5.60696L22.4147 6.19273C22.2241 6.38336 22.1168 6.64247 22.1168 6.91268V13.2747C21.8947 13.3034 21.6864 13.4043 21.5264 13.5644L20.9415 14.1502C20.7509 14.3408 20.6435 14.5999 20.6435 14.8701V22.9821C20.6435 23.5447 21.0988 24 21.6615 24H25.7323C26.2949 24 26.7502 23.5447 26.7502 22.9821V16.0343C26.8797 16.0176 27.0047 15.9759 27.1185 15.913L30.7099 23.4216C30.8793 23.7751 31.2365 24 31.6279 24H33.5092C33.9016 24 34.2588 23.7751 34.4281 23.4207L37.9529 16.0426H38.386V22.9821C38.386 23.5447 38.8413 24 39.404 24H43.4748C44.0374 24 44.4927 23.5447 44.4927 22.9821V16.0343C44.7148 16.0056 44.923 15.9047 45.0831 15.7446L45.6679 15.1597C45.8586 14.9691 45.9659 14.71 45.9659 14.4398V8.07683C46.188 8.04814 46.3962 7.94727 46.5563 7.78718L47.1421 7.20233C47.3327 7.0117 47.44 6.75259 47.44 6.48238V1.02258C47.44 0.45994 46.9848 0.00464831 46.4221 0.00464831L46.4212 0.00280137ZM43.7172 2.77897H44.663V5.31639C44.4409 5.34507 44.2326 5.44594 44.0726 5.60603L43.4877 6.19088C43.2971 6.38151 43.1897 6.64062 43.1897 6.91083V13.2738C42.9843 13.3007 42.79 13.3895 42.6354 13.5292V7.3763C42.6354 6.93212 42.3485 6.54345 41.933 6.40835L43.7172 2.77897ZM26.3661 2.77897H27.311L28.7129 5.63565C28.6722 5.68007 28.6352 5.72819 28.6019 5.78001L28.1753 6.44999C27.9856 6.74889 27.9643 7.1246 28.1188 7.44293L31.1171 13.5912C31.0755 13.6356 31.0375 13.6847 31.0042 13.7374L30.7784 14.0928C30.7617 14.0262 30.7386 13.9605 30.709 13.8975L27.3841 6.93767C27.212 6.57862 26.851 6.35838 26.4661 6.35838C26.4337 6.35838 26.4004 6.36023 26.3671 6.363L26.3661 2.77897ZM24.8929 8.0759C25.0984 8.04906 25.2927 7.96022 25.4472 7.82049V13.2738C25.2418 13.3007 25.0475 13.3895 24.8929 13.5292V8.0759ZM39.639 8.08422H40.1508L37.6753 13.2655H37.1164L39.639 8.08422ZM30.1066 15.7279C30.1565 15.6752 30.2019 15.6169 30.2408 15.553L30.4508 15.2088C30.4675 15.2745 30.4915 15.3393 30.5221 15.4022L31.6557 17.7157C31.8269 18.0646 32.1813 18.2857 32.57 18.2857H32.5727C32.9623 18.2848 33.3167 18.0618 33.487 17.7111L34.294 16.0416H34.876L32.5681 20.8722L30.1066 15.7279ZM41.1613 16.0333C41.3676 16.0065 41.5611 15.9176 41.7156 15.7779V21.2229H41.1613V16.0333ZM23.4188 16.0333C23.6242 16.0065 23.8186 15.9176 23.9731 15.7779V21.2229H23.4188V16.0333Z" fill="#E203A8"/>
</svg>
